<svg width="246" height="92" viewBox="0 0 246 92" xmlns="http://www.w3.org/2000/svg">
  <g fill="none" fill-rule="evenodd">
    <path d="M0 4.086v83.406h5.87V9.222h22.992c8.153 0 14.37 1.855 18.65 5.565 4.28 3.71 6.42 8.989 6.42 15.837 0 7.256-2.16 12.658-6.481 16.204-4.322 3.547-10.885 5.32-19.69 5.32H11.863v35.344h5.747V57.285h10.762c10.11 0 17.876-2.263 23.298-6.788 5.422-4.525 8.132-11.108 8.132-19.75 0-8.235-2.568-14.737-7.704-19.506-5.137-4.77-12.434-7.155-21.891-7.155H0zm11.863 10.518v32.163h15.409c7.093 0 12.29-1.284 15.593-3.852 3.301-2.568 4.953-6.665 4.953-12.29 0-5.463-1.692-9.499-5.076-12.108-3.383-2.609-8.54-3.913-15.47-3.913h-15.41zm15.409 27.15H17.61V19.74h9.662c5.38 0 9.192.917 11.434 2.752 2.242 1.834 3.364 4.504 3.364 8.01 0 3.75-1.06 6.563-3.18 8.438-2.12 1.876-5.993 2.813-11.618 2.813zM165.22 4.086v83.406h34.365c8.887 0 16.775-1.774 23.664-5.32 6.889-3.547 12.25-8.52 16.082-14.92 3.832-6.4 5.748-13.8 5.748-22.197 0-8.316-1.957-15.572-5.87-21.768-3.914-6.197-9.336-10.946-16.266-14.248-6.93-3.302-14.797-4.953-23.603-4.953h-34.12zm31.919 78.27H171.09V9.222h25.927c8.805 0 16.387 1.508 22.747 4.525 6.359 3.016 11.19 7.215 14.492 12.596 3.302 5.381 4.953 11.618 4.953 18.711 0 7.664-1.672 14.309-5.014 19.934-3.343 5.626-8.174 9.927-14.492 12.902-6.319 2.976-13.84 4.464-22.564 4.464zm-20.056-67.752v62.615h19.811c7.501 0 13.963-1.305 19.384-3.914 5.422-2.609 9.56-6.298 12.413-11.067 2.854-4.77 4.281-10.334 4.281-16.694 0-9.946-3.078-17.59-9.234-22.93-6.155-5.34-15.103-8.01-26.844-8.01h-19.811zm20.301 57.6h-14.553V19.74h14.553c10.028 0 17.488 2.263 22.38 6.787 4.892 4.525 7.337 10.864 7.337 19.017 0 8.48-2.568 15.043-7.704 19.69-5.137 4.647-12.474 6.97-22.013 6.97z" fill="#F1F1F2"/>
    <path stroke="#F1F1F2" d="M82.856 10.973l13.483 8.17M82.856 10.973l2.098 6.922M84.954 17.896l11.164 8.964M96.118 26.86l.221-7.716M82.856 10.973c2.83-2.498 10.653-4.662 23.97-3.164M106.826 7.925l5.802 11.219M107.449 25.62l5.178-6.477M96.29 18.955c1.998-.713 7.705-2.46 16.436.173M96.272 26.8c1.28-.721 4.897-1.513 11.143-1.547M67.933 34.648l15.711-1.314M67.933 34.648l5.767 4.368M73.7 39.016l14.301.69M88.001 39.706l-4.356-6.373M67.933 34.648c.822-3.683 5.879-10.033 17.534-16.648M85.534 18.093l11.288 5.667M96.44 32.043l.382-8.283M83.494 33.21c1.196-1.751 4.786-6.52 13.397-9.521M88.09 39.567c.611-1.335 3.072-4.103 8.105-7.8M69.776 62.575l11.939-10.299M69.776 62.575l7.234.143M77.009 62.718l11.975-7.848M88.984 54.87l-7.269-2.595M69.776 62.575c-1.5-3.464-1.14-11.574 4.4-23.776M74.285 38.835l12.462-2.051M91.307 43.71l-4.56-6.926M81.52 52.263c-.061-2.119.04-8.087 5.244-15.577M88.975 54.705c-.29-1.439.074-5.125 1.972-11.075M87.682 84.082l3.605-15.348M87.682 84.082l5.937-4.135M93.619 79.948l5.075-13.387M98.694 66.561l-7.407 2.174M87.682 84.082c-3.249-1.919-7.725-8.69-10.415-21.819M77.377 62.228l8.877-8.984M94.013 56.166l-7.76-2.923M91.123 68.838c-1.296-1.679-4.72-6.566-4.915-15.684M98.59 66.433c-1.083-.994-2.954-4.19-4.916-10.12M114.811 90.959l-6.105-14.536M114.811 90.959l2.372-6.835M117.183 84.124l-3.763-13.813M113.421 70.311l-4.715 6.112M114.811 90.96c-3.757.355-11.358-2.492-21.25-11.532M93.627 79.335l1.901-12.486M103.524 64.653l-7.996 2.196M108.634 76.604c-2.035-.597-7.679-2.537-13.194-9.8M113.26 70.269c-1.459-.17-4.852-1.654-9.924-5.298M140.8 80.576l-13.483-8.172M140.8 80.576l-2.098-6.923M138.702 73.653l-11.164-8.964M127.538 64.689l-.222 7.716M140.8 80.576c-2.829 2.497-10.653 4.66-23.97 3.163M116.83 83.623l-5.801-11.219M116.206 65.928l-5.178 6.477M127.365 72.593c-1.997.713-7.704 2.461-16.435-.173M127.384 64.748c-1.279.722-4.897 1.514-11.143 1.548M155.723 56.9l-15.711 1.314M155.723 56.9l-5.767-4.368M149.956 52.532l-14.301-.689M135.655 51.842l4.356 6.372M155.723 56.9c-.821 3.684-5.879 10.033-17.533 16.648M138.122 73.455l-11.288-5.667M127.216 59.505l-.382 8.283M140.161 58.338c-1.196 1.751-4.786 6.52-13.397 9.521M135.567 51.98c-.611 1.337-3.073 4.105-8.105 7.803M153.879 28.974l-11.938 10.299M153.879 28.974l-7.232-.144M146.647 28.83l-11.976 7.848M134.671 36.678l7.271 2.595M153.879 28.974c1.501 3.463 1.141 11.573-4.399 23.774M149.371 52.713l-12.463 2.051M132.349 47.838l4.56 6.926M142.136 39.285c.061 2.12-.041 8.086-5.243 15.577M134.681 36.843c.291 1.44-.074 5.125-1.972 11.076M135.974 7.466l-3.604 15.348M135.974 7.466l-5.937 4.135M130.037 11.6l-5.075 13.388M124.962 24.988l7.407-2.174M135.974 7.466c3.249 1.919 7.725 8.69 10.415 21.82M146.279 29.321l-8.877 8.984M129.643 35.382l7.76 2.923M132.533 22.71c1.295 1.679 4.721 6.566 4.914 15.684M125.067 25.116c1.081.994 2.953 4.19 4.915 10.12M108.845.59l6.105 14.536M108.845.59l-2.372 6.834M106.473 7.424l3.763 13.814M110.235 21.238l4.715-6.113M108.845.59c3.757-.357 11.358 2.49 21.251 11.53M130.028 12.213l-1.9 12.486M120.132 26.896l7.996-2.196M115.022 14.945c2.035.597 7.679 2.537 13.194 9.8M110.395 21.28c1.459.169 4.852 1.654 9.925 5.298"/>
    <path d="M89.639 45.774c0 12.246 9.942 22.189 22.189 22.189 12.246 0 22.189-9.943 22.189-22.189s-9.943-22.188-22.189-22.188c-12.247 0-22.19 9.942-22.19 22.188z" stroke="#F1F1F2"/>
  </g>
</svg>
