<?xml version="1.0" encoding="UTF-8" standalone="no"?>
<!DOCTYPE svg PUBLIC "-//W3C//DTD SVG 1.1//EN" "http://www.w3.org/Graphics/SVG/1.1/DTD/svg11.dtd">
<svg width="100%" height="100%" viewBox="0 0 400 400" version="1.1" xmlns="http://www.w3.org/2000/svg" xmlns:xlink="http://www.w3.org/1999/xlink" xml:space="preserve" xmlns:serif="http://www.serif.com/" style="fill-rule:evenodd;clip-rule:evenodd;stroke-miterlimit:10;">
    <g id="Layer1">
        <rect x="-4.299" y="-4.247" width="404.299" height="404.247" style="fill:rgb(27,117,188);"/>
    </g>
    <g transform="matrix(3.56338,2.15949,2.15949,-3.56338,92.1716,42.8983)">
        <path d="M-1.141,-4.085L14.624,-4.086" style="fill:none;fill-rule:nonzero;stroke:rgb(241,242,242);stroke-width:1px;"/>
    </g>
    <g transform="matrix(1.20843,3.98758,3.98758,-1.20843,96.1882,61.0487)">
        <path d="M-2.568,-3.462L4.666,-3.462" style="fill:none;fill-rule:nonzero;stroke:rgb(241,242,242);stroke-width:1px;"/>
    </g>
    <g transform="matrix(3.24896,2.60871,2.60871,-3.24896,104.839,73.3902)">
        <path d="M-1.577,-4.482L12.741,-4.482" style="fill:none;fill-rule:nonzero;stroke:rgb(241,242,242);stroke-width:1px;"/>
    </g>
    <g transform="matrix(0.119292,-4.16496,-4.16496,-0.119292,151.057,106.034)">
        <path d="M-3.749,3.858L3.97,3.858" style="fill:none;fill-rule:nonzero;stroke:rgb(241,242,242);stroke-width:1px;"/>
    </g>
    <g transform="matrix(4.13086,-0.545094,-0.545094,-4.13086,80.9815,61.4412)">
        <path d="M-0.202,1.588C2.93,3.693 10.969,4.815 23.976,1.588" style="fill:none;fill-rule:nonzero;stroke:rgb(241,242,242);stroke-width:1px;"/>
    </g>
    <g transform="matrix(1.91402,3.70103,3.70103,-1.91402,206.454,44.1917)">
        <path d="M-3.414,-5.61L9.216,-5.61" style="fill:none;fill-rule:nonzero;stroke:rgb(241,242,242);stroke-width:1px;"/>
    </g>
    <g transform="matrix(2.60179,-3.2545,-3.2545,-2.60179,196.347,119.381)">
        <path d="M-1.557,3.239L6.735,3.239" style="fill:none;fill-rule:nonzero;stroke:rgb(241,242,242);stroke-width:1px;"/>
    </g>
    <g transform="matrix(4.16644,0.0438572,0.0438572,-4.16644,135.213,87.8932)">
        <path d="M0.012,-0.086C2.002,0.648 7.69,2.456 16.448,-0.086" style="fill:none;fill-rule:nonzero;stroke:rgb(241,242,242);stroke-width:1px;"/>
    </g>
    <g transform="matrix(4.12708,-0.572969,-0.572969,-4.12708,135.846,124.1)">
        <path d="M-0.053,0.773C1.314,1.312 5.005,1.599 11.196,0.774" style="fill:none;fill-rule:nonzero;stroke:rgb(241,242,242);stroke-width:1px;"/>
    </g>
    <g transform="matrix(4.15217,-0.34727,-0.34727,-4.15217,17.4457,156.359)">
        <path d="M-0.027,0.657L15.738,0.657" style="fill:none;fill-rule:nonzero;stroke:rgb(241,242,242);stroke-width:1px;"/>
    </g>
    <g transform="matrix(3.32148,2.51573,2.51573,-3.32148,25.0351,148.233)">
        <path d="M-0.734,-2.184L6.501,-2.184" style="fill:none;fill-rule:nonzero;stroke:rgb(241,242,242);stroke-width:1px;"/>
    </g>
    <g transform="matrix(4.16183,0.200801,0.200801,-4.16183,41.2371,170.407)">
        <path d="M-0.008,-0.345L14.309,-0.345" style="fill:none;fill-rule:nonzero;stroke:rgb(241,242,242);stroke-width:1px;"/>
    </g>
    <g transform="matrix(-2.3512,-3.43991,-3.43991,2.3512,97.4848,146.455)">
        <path d="M-6.038,3.187L1.682,3.187" style="fill:none;fill-rule:nonzero;stroke:rgb(241,242,242);stroke-width:1px;"/>
    </g>
    <g transform="matrix(3.02163,-2.86895,-2.86895,-3.02163,51.0233,169.262)">
        <path d="M-3.322,8.324C-0.19,10.429 7.849,11.552 20.856,8.324" style="fill:none;fill-rule:nonzero;stroke:rgb(241,242,242);stroke-width:1px;"/>
    </g>
    <g transform="matrix(3.72374,1.86946,1.86946,-3.72374,98.2381,75.3647)">
        <path d="M-0.671,-2.833L11.959,-2.833" style="fill:none;fill-rule:nonzero;stroke:rgb(241,242,242);stroke-width:1px;"/>
    </g>
    <g transform="matrix(0.191957,-4.16224,-4.16224,-0.191957,153.879,127.118)">
        <path d="M-3.955,4.142L4.337,4.142" style="fill:none;fill-rule:nonzero;stroke:rgb(241,242,242);stroke-width:1px;"/>
    </g>
    <g transform="matrix(3.39634,-2.41371,-2.41371,-3.39634,98.5937,160.148)">
        <path d="M-1.519,4.76C0.47,5.495 6.158,7.302 14.916,4.76" style="fill:none;fill-rule:nonzero;stroke:rgb(241,242,242);stroke-width:1px;"/>
    </g>
    <g transform="matrix(3.00204,-2.88944,-2.88944,-3.00204,117.082,181.303)">
        <path d="M-1.572,3.901C-0.206,4.439 3.486,4.726 9.677,3.901" style="fill:none;fill-rule:nonzero;stroke:rgb(241,242,242);stroke-width:1px;"/>
    </g>
    <g transform="matrix(3.15488,-2.72174,-2.72174,-3.15488,44.8407,281.036)">
        <path d="M-1.914,5.15L13.852,5.149" style="fill:none;fill-rule:nonzero;stroke:rgb(241,242,242);stroke-width:1px;"/>
    </g>
    <g transform="matrix(4.16584,0.0829367,0.0829367,-4.16584,24.7947,269.7)">
        <path d="M-0.001,-0.072L7.234,-0.072" style="fill:none;fill-rule:nonzero;stroke:rgb(241,242,242);stroke-width:1px;"/>
    </g>
    <g transform="matrix(3.48495,-2.28391,-2.28391,-3.48495,67.9667,281.598)">
        <path d="M-1.171,3.924L13.146,3.924" style="fill:none;fill-rule:nonzero;stroke:rgb(241,242,242);stroke-width:1px;"/>
    </g>
    <g transform="matrix(-3.92417,-1.40072,-1.40072,3.92417,77.2263,222.31)">
        <path d="M-7.495,1.297L0.225,1.297" style="fill:none;fill-rule:nonzero;stroke:rgb(241,242,242);stroke-width:1px;"/>
    </g>
    <g transform="matrix(0.758076,-4.09712,-4.09712,-0.758076,78.431,235.419)">
        <path d="M-10.503,11.15C-7.371,13.255 0.669,14.378 13.675,11.15" style="fill:none;fill-rule:nonzero;stroke:rgb(241,242,242);stroke-width:1px;"/>
    </g>
    <g transform="matrix(4.11136,-0.676648,-0.676648,-4.11136,44.6109,175.246)">
        <path d="M-0.084,1.025L12.546,1.025" style="fill:none;fill-rule:nonzero;stroke:rgb(241,242,242);stroke-width:1px;"/>
    </g>
    <g transform="matrix(-2.29127,-3.48012,-3.48012,2.29127,111.825,161.101)">
        <path d="M-6.426,3.463L1.866,3.463" style="fill:none;fill-rule:nonzero;stroke:rgb(241,242,242);stroke-width:1px;"/>
    </g>
    <g transform="matrix(1.32917,-3.94898,-3.94898,-1.32917,111.827,215.165)">
        <path d="M-5.617,7.759C-3.629,8.494 2.06,10.301 10.818,7.759" style="fill:none;fill-rule:nonzero;stroke:rgb(241,242,242);stroke-width:1px;"/>
    </g>
    <g transform="matrix(0.730423,-4.10215,-4.10215,-0.730423,130.384,221.632)">
        <path d="M-4.759,5.394C-3.393,5.933 0.3,6.22 6.491,5.394" style="fill:none;fill-rule:nonzero;stroke:rgb(241,242,242);stroke-width:1px;"/>
    </g>
    <g transform="matrix(0.952754,-4.05628,-4.05628,-0.952754,136.314,342.264)">
        <path d="M-6.08,7.674L9.685,7.674" style="fill:none;fill-rule:nonzero;stroke:rgb(241,242,242);stroke-width:1px;"/>
    </g>
    <g transform="matrix(3.41911,-2.38134,-2.38134,-3.41911,106.536,365.14)">
        <path d="M-0.649,2.068L6.586,2.067" style="fill:none;fill-rule:nonzero;stroke:rgb(241,242,242);stroke-width:1px;"/>
    </g>
    <g transform="matrix(1.47701,-3.8961,-3.8961,-1.47701,157.032,334.271)">
        <path d="M-4.621,6.694L9.696,6.694" style="fill:none;fill-rule:nonzero;stroke:rgb(241,242,242);stroke-width:1px;"/>
    </g>
    <g transform="matrix(-3.99802,1.17344,1.17344,3.99802,116.313,299.831)">
        <path d="M-7.563,-1.087L0.156,-1.087" style="fill:none;fill-rule:nonzero;stroke:rgb(241,242,242);stroke-width:1px;"/>
    </g>
    <g transform="matrix(-1.7949,-3.76024,-3.76024,1.7949,109.371,274.997)">
        <path d="M-17.296,10.91C-14.165,13.015 -6.125,14.137 6.881,10.91" style="fill:none;fill-rule:nonzero;stroke:rgb(241,242,242);stroke-width:1px;"/>
    </g>
    <g transform="matrix(2.92858,-2.96388,-2.96388,-2.92858,75.2618,276.15)">
        <path d="M-1.876,4.492L10.753,4.492" style="fill:none;fill-rule:nonzero;stroke:rgb(241,242,242);stroke-width:1px;"/>
    </g>
    <g transform="matrix(-3.89922,-1.46874,-1.46874,3.89922,96.6233,225.812)">
        <path d="M-8.026,1.462L0.266,1.461" style="fill:none;fill-rule:nonzero;stroke:rgb(241,242,242);stroke-width:1px;"/>
    </g>
    <g transform="matrix(-1.24599,-3.97601,-3.97601,1.24599,131.609,243.882)">
        <path d="M-10.676,7.842C-8.686,8.577 -2.998,10.383 5.761,7.842" style="fill:none;fill-rule:nonzero;stroke:rgb(241,242,242);stroke-width:1px;"/>
    </g>
    <g transform="matrix(-1.8203,-3.74801,-3.74801,1.8203,149.092,246.572)">
        <path d="M-8.083,5.06C-6.716,5.599 -3.024,5.886 3.168,5.06" style="fill:none;fill-rule:nonzero;stroke:rgb(241,242,242);stroke-width:1px;"/>
    </g>
    <g transform="matrix(-1.61344,-3.8416,-3.8416,1.61344,222.707,334.534)">
        <path d="M-10.935,7.268L4.83,7.268" style="fill:none;fill-rule:nonzero;stroke:rgb(241,242,242);stroke-width:1px;"/>
    </g>
    <g transform="matrix(1.36607,-3.93637,-3.93637,-1.36607,229.204,383.368)">
        <path d="M-2.431,3.418L4.803,3.418" style="fill:none;fill-rule:nonzero;stroke:rgb(241,242,242);stroke-width:1px;"/>
    </g>
    <g transform="matrix(-1.09519,-4.02016,-4.02016,1.09519,240.179,315.886)">
        <path d="M-9.04,6.907L5.277,6.907" style="fill:none;fill-rule:nonzero;stroke:rgb(241,242,242);stroke-width:1px;"/>
    </g>
    <g transform="matrix(-2.54502,3.29909,3.29909,2.54502,200.895,330.524)">
        <path d="M-6.217,-3.056L1.502,-3.056" style="fill:none;fill-rule:nonzero;stroke:rgb(241,242,242);stroke-width:1px;"/>
    </g>
    <g transform="matrix(-3.66227,-1.98718,-1.98718,3.66227,140.347,323.411)">
        <path d="M-22.63,5.431C-19.497,7.536 -11.458,8.658 1.548,5.431" style="fill:none;fill-rule:nonzero;stroke:rgb(241,242,242);stroke-width:1px;"/>
    </g>
    <g transform="matrix(0.62715,-4.1192,-4.1192,-0.62715,153.244,321.655)">
        <path d="M-5.364,6.243L7.265,6.243" style="fill:none;fill-rule:nonzero;stroke:rgb(241,242,242);stroke-width:1px;"/>
    </g>
    <g transform="matrix(-4.01789,1.10346,1.10346,4.01789,133.89,292.058)">
        <path d="M-8.144,-1.098L0.148,-1.098" style="fill:none;fill-rule:nonzero;stroke:rgb(241,242,242);stroke-width:1px;"/>
    </g>
    <g transform="matrix(-3.34492,-2.48448,-2.48448,3.34492,149.312,275.259)">
        <path d="M-14.815,4.9C-12.825,5.634 -7.137,7.442 1.621,4.9" style="fill:none;fill-rule:nonzero;stroke:rgb(241,242,242);stroke-width:1px;"/>
    </g>
    <g transform="matrix(-3.67567,-1.96228,-1.96228,3.67567,172.253,271.549)">
        <path d="M-10.587,2.649C-9.22,3.187 -5.528,3.475 0.663,2.649" style="fill:none;fill-rule:nonzero;stroke:rgb(241,242,242);stroke-width:1px;"/>
    </g>
    <g transform="matrix(-3.56338,-2.15949,-2.15949,3.56338,277.427,298.865)">
        <path d="M-14.624,4.085L1.141,4.085" style="fill:none;fill-rule:nonzero;stroke:rgb(241,242,242);stroke-width:1px;"/>
    </g>
    <g transform="matrix(-1.20843,-3.98758,-3.98758,1.20843,328.881,322.215)">
        <path d="M-4.666,3.462L2.568,3.462" style="fill:none;fill-rule:nonzero;stroke:rgb(241,242,242);stroke-width:1px;"/>
    </g>
    <g transform="matrix(-3.24896,-2.60871,-2.60871,3.24896,282.275,268.361)">
        <path d="M-12.741,4.482L1.577,4.482" style="fill:none;fill-rule:nonzero;stroke:rgb(241,242,242);stroke-width:1px;"/>
    </g>
    <g transform="matrix(-0.119831,4.16494,4.16494,0.119831,281.052,295.809)">
        <path d="M-3.971,-3.858L3.749,-3.858" style="fill:none;fill-rule:nonzero;stroke:rgb(241,242,242);stroke-width:1px;"/>
    </g>
    <g transform="matrix(-4.13086,0.545094,0.545094,4.13086,222.541,370.875)">
        <path d="M-24.172,-3.073C-21.041,-0.968 -13.001,0.154 0.006,-3.073" style="fill:none;fill-rule:nonzero;stroke:rgb(241,242,242);stroke-width:1px;"/>
    </g>
    <g transform="matrix(-1.91376,-3.70117,-3.70117,1.91376,223.966,312.86)">
        <path d="M-9.216,5.61L3.415,5.61" style="fill:none;fill-rule:nonzero;stroke:rgb(241,242,242);stroke-width:1px;"/>
    </g>
    <g transform="matrix(-2.60179,3.2545,3.2545,2.60179,211.259,314.319)">
        <path d="M-6.735,-3.239L1.557,-3.239" style="fill:none;fill-rule:nonzero;stroke:rgb(241,242,242);stroke-width:1px;"/>
    </g>
    <g transform="matrix(-4.16644,-0.0438572,-0.0438572,4.16644,196.212,320.917)">
        <path d="M-16.423,-2.374C-14.433,-1.64 -8.745,0.168 0.013,-2.374" style="fill:none;fill-rule:nonzero;stroke:rgb(241,242,242);stroke-width:1px;"/>
    </g>
    <g transform="matrix(-4.12703,0.573333,0.573333,4.12703,219.052,288.672)">
        <path d="M-11.197,-0.774C-9.83,-0.235 -6.138,0.052 0.054,-0.774" style="fill:none;fill-rule:nonzero;stroke:rgb(241,242,242);stroke-width:1px;"/>
    </g>
    <g transform="matrix(-4.15217,0.34727,0.34727,4.15217,317.775,254.549)">
        <path d="M-15.738,-0.657L0.027,-0.657" style="fill:none;fill-rule:nonzero;stroke:rgb(241,242,242);stroke-width:1px;"/>
    </g>
    <g transform="matrix(-3.32148,-2.51573,-2.51573,3.32148,366.798,222.747)">
        <path d="M-6.501,2.184L0.734,2.184" style="fill:none;fill-rule:nonzero;stroke:rgb(241,242,242);stroke-width:1px;"/>
    </g>
    <g transform="matrix(-4.16184,-0.200511,-0.200511,4.16184,299.384,223.852)">
        <path d="M-14.309,0.344L0.008,0.344" style="fill:none;fill-rule:nonzero;stroke:rgb(241,242,242);stroke-width:1px;"/>
    </g>
    <g transform="matrix(2.35146,3.43973,3.43973,-2.35146,314.194,223.573)">
        <path d="M-1.681,-3.186L6.037,-3.186" style="fill:none;fill-rule:nonzero;stroke:rgb(241,242,242);stroke-width:1px;"/>
    </g>
    <g transform="matrix(-3.02155,2.86903,2.86903,3.02155,343.762,331.341)">
        <path d="M-20.855,-8.324C-17.723,-6.218 -9.684,-5.096 3.322,-8.324" style="fill:none;fill-rule:nonzero;stroke:rgb(241,242,242);stroke-width:1px;"/>
    </g>
    <g transform="matrix(-3.72374,-1.86946,-1.86946,3.72374,270.323,282.428)">
        <path d="M-11.959,2.833L0.671,2.833" style="fill:none;fill-rule:nonzero;stroke:rgb(241,242,242);stroke-width:1px;"/>
    </g>
    <g transform="matrix(-0.191957,4.16224,4.16224,0.191957,280.522,276.058)">
        <path d="M-4.337,-4.142L3.955,-4.142" style="fill:none;fill-rule:nonzero;stroke:rgb(241,242,242);stroke-width:1px;"/>
    </g>
    <g transform="matrix(-3.39634,2.41371,2.41371,3.39634,278.885,304.521)">
        <path d="M-14.916,-4.76C-12.927,-4.026 -7.238,-2.218 1.519,-4.76" style="fill:none;fill-rule:nonzero;stroke:rgb(241,242,242);stroke-width:1px;"/>
    </g>
    <g transform="matrix(-3.00186,2.88963,2.88963,3.00186,281.133,265.534)">
        <path d="M-9.677,-3.901C-8.311,-3.362 -4.617,-3.075 1.572,-3.901" style="fill:none;fill-rule:nonzero;stroke:rgb(241,242,242);stroke-width:1px;"/>
    </g>
    <g transform="matrix(-3.15488,2.72174,2.72174,3.15488,345.526,183.946)">
        <path d="M-13.852,-5.15L1.914,-5.15" style="fill:none;fill-rule:nonzero;stroke:rgb(241,242,242);stroke-width:1px;"/>
    </g>
    <g transform="matrix(-4.16584,-0.0829482,-0.0829482,4.16584,345.089,129.098)">
        <path d="M-7.233,0.072L0.001,0.072" style="fill:none;fill-rule:nonzero;stroke:rgb(241,242,242);stroke-width:1px;"/>
    </g>
    <g transform="matrix(-3.48503,2.28378,2.28378,3.48503,308.221,173.098)">
        <path d="M-13.147,-3.924L1.171,-3.924" style="fill:none;fill-rule:nonzero;stroke:rgb(241,242,242);stroke-width:1px;"/>
    </g>
    <g transform="matrix(3.92423,1.40055,1.40055,-3.92423,297.878,157.319)">
        <path d="M-0.225,-1.297L7.496,-1.297" style="fill:none;fill-rule:nonzero;stroke:rgb(241,242,242);stroke-width:1px;"/>
    </g>
    <g transform="matrix(-0.758107,4.09712,4.09712,0.758107,416.78,194.476)">
        <path d="M-13.401,-12.625C-10.269,-10.519 -2.229,-9.397 10.776,-12.625" style="fill:none;fill-rule:nonzero;stroke:rgb(241,242,242);stroke-width:1px;"/>
    </g>
    <g transform="matrix(-4.11137,0.676596,0.676596,4.11137,305.54,241.617)">
        <path d="M-12.547,-1.025L0.084,-1.026" style="fill:none;fill-rule:nonzero;stroke:rgb(241,242,242);stroke-width:1px;"/>
    </g>
    <g transform="matrix(2.29127,3.48012,3.48012,-2.29127,301.831,207.159)">
        <path d="M-1.866,-3.463L6.426,-3.463" style="fill:none;fill-rule:nonzero;stroke:rgb(241,242,242);stroke-width:1px;"/>
    </g>
    <g transform="matrix(-1.32917,3.94898,3.94898,1.32917,342.8,225.997)">
        <path d="M-10.799,-7.817C-8.809,-7.083 -3.122,-5.277 5.637,-7.817" style="fill:none;fill-rule:nonzero;stroke:rgb(241,242,242);stroke-width:1px;"/>
    </g>
    <g transform="matrix(-0.730359,4.10216,4.10216,0.730359,313.822,193.351)">
        <path d="M-6.44,-5.681C-5.073,-5.142 -1.381,-4.856 4.81,-5.681" style="fill:none;fill-rule:nonzero;stroke:rgb(241,242,242);stroke-width:1px;"/>
    </g>
    <g transform="matrix(-0.952504,4.05633,4.05633,0.952504,322.511,86.9741)">
        <path d="M-9.685,-7.674L6.081,-7.674" style="fill:none;fill-rule:nonzero;stroke:rgb(241,242,242);stroke-width:1px;"/>
    </g>
    <g transform="matrix(-3.41911,2.38134,2.38134,3.41911,283.013,63.1327)">
        <path d="M-6.586,-2.068L0.649,-2.068" style="fill:none;fill-rule:nonzero;stroke:rgb(241,242,242);stroke-width:1px;"/>
    </g>
    <g transform="matrix(-1.47691,3.89613,3.89613,1.47691,287.633,105.273)">
        <path d="M-9.696,-6.694L4.621,-6.694" style="fill:none;fill-rule:nonzero;stroke:rgb(241,242,242);stroke-width:1px;"/>
    </g>
    <g transform="matrix(3.99802,-1.17344,-1.17344,-3.99802,256.626,117.553)">
        <path d="M-0.156,1.087L7.563,1.087" style="fill:none;fill-rule:nonzero;stroke:rgb(241,242,242);stroke-width:1px;"/>
    </g>
    <g transform="matrix(1.79483,3.76028,3.76028,-1.79483,353.984,46.6751)">
        <path d="M-6.882,-10.91C-3.75,-8.805 4.289,-7.682 17.297,-10.91" style="fill:none;fill-rule:nonzero;stroke:rgb(241,242,242);stroke-width:1px;"/>
    </g>
    <g transform="matrix(-2.92858,2.96388,2.96388,2.92858,325.369,176.469)">
        <path d="M-10.753,-4.492L1.876,-4.492" style="fill:none;fill-rule:nonzero;stroke:rgb(241,242,242);stroke-width:1px;"/>
    </g>
    <g transform="matrix(3.89922,1.46874,1.46874,-3.89922,277.412,151.391)">
        <path d="M-0.266,-1.461L8.026,-1.462" style="fill:none;fill-rule:nonzero;stroke:rgb(241,242,242);stroke-width:1px;"/>
    </g>
    <g transform="matrix(1.24576,3.97608,3.97608,-1.24576,324.629,117.034)">
        <path d="M-5.761,-7.842C-3.772,-7.108 1.916,-5.3 10.675,-7.842" style="fill:none;fill-rule:nonzero;stroke:rgb(241,242,242);stroke-width:1px;"/>
    </g>
    <g transform="matrix(1.8203,3.74801,3.74801,-1.8203,279.892,116.583)">
        <path d="M-3.168,-5.06C-1.801,-4.522 1.891,-4.234 8.083,-5.06" style="fill:none;fill-rule:nonzero;stroke:rgb(241,242,242);stroke-width:1px;"/>
    </g>
    <g transform="matrix(1.61344,3.8416,3.8416,-1.61344,223.285,18.5604)">
        <path d="M-4.83,-7.268L10.935,-7.268" style="fill:none;fill-rule:nonzero;stroke:rgb(241,242,242);stroke-width:1px;"/>
    </g>
    <g transform="matrix(-1.36624,3.9363,3.9363,1.36624,194.459,35.3045)">
        <path d="M-4.803,-3.417L2.431,-3.417" style="fill:none;fill-rule:nonzero;stroke:rgb(241,242,242);stroke-width:1px;"/>
    </g>
    <g transform="matrix(1.09512,4.02018,4.02018,-1.09512,211.233,53.8584)">
        <path d="M-5.277,-6.907L9.04,-6.907" style="fill:none;fill-rule:nonzero;stroke:rgb(241,242,242);stroke-width:1px;"/>
    </g>
    <g transform="matrix(2.54476,-3.29929,-3.29929,-2.54476,207.273,100.586)">
        <path d="M-1.503,3.056L6.218,3.057" style="fill:none;fill-rule:nonzero;stroke:rgb(241,242,242);stroke-width:1px;"/>
    </g>
    <g transform="matrix(3.66234,1.98705,1.98705,-3.66234,204.03,-6.5659)">
        <path d="M-1.378,-5.743C1.754,-3.638 9.793,-2.516 22.799,-5.743" style="fill:none;fill-rule:nonzero;stroke:rgb(241,242,242);stroke-width:1px;"/>
    </g>
    <g transform="matrix(-0.626828,4.11925,4.11925,0.626828,296.998,94.0004)">
        <path d="M-7.265,-6.243L5.365,-6.243" style="fill:none;fill-rule:nonzero;stroke:rgb(241,242,242);stroke-width:1px;"/>
    </g>
    <g transform="matrix(4.01789,-1.10346,-1.10346,-4.01789,236.407,125.587)">
        <path d="M-0.148,1.098L8.144,1.098" style="fill:none;fill-rule:nonzero;stroke:rgb(241,242,242);stroke-width:1px;"/>
    </g>
    <g transform="matrix(3.34492,2.48448,2.48448,-3.34492,230.902,59.179)">
        <path d="M-1.621,-4.9C0.369,-4.166 6.057,-2.358 14.815,-4.9" style="fill:none;fill-rule:nonzero;stroke:rgb(241,242,242);stroke-width:1px;"/>
    </g>
    <g transform="matrix(3.67575,1.96213,1.96213,-3.67575,201.664,89.5014)">
        <path d="M-0.663,-2.649C0.704,-2.111 4.396,-1.823 10.588,-2.649" style="fill:none;fill-rule:nonzero;stroke:rgb(241,242,242);stroke-width:1px;"/>
    </g>
    <g transform="matrix(0,4.16667,4.16667,0,200.002,107.545)">
        <ellipse cx="22.189" cy="-0.001" rx="22.188" ry="22.189" style="fill:none;stroke:rgb(241,242,242);stroke-width:1px;"/>
    </g>
</svg>
