<svg viewBox="0 0 400 400" xmlns="http://www.w3.org/2000/svg" fill-rule="evenodd" clip-rule="evenodd" stroke-miterlimit="10">
  <path fill="#1b75bc" d="M-4.299-4.247H400V400H-4.299z"/>
  <path d="M79.284 54.99L135.46 89.04" fill="none" stroke="#f1f2f2" stroke-width="4.16666"/>
  <path d="M79.28 54.992l8.742 28.846M88.023 83.838l46.519 37.352M134.541 121.188l.921-32.15M79.281 54.992c11.79-10.403 44.387-19.42 99.876-13.18" fill="none" stroke="#f1f2f2" stroke-width="4.16667"/>
  <path d="M179.157 42.294l24.174 46.744M181.755 116.021l21.574-26.986" fill="none" stroke="#f1f2f2" stroke-width="4.16666"/>
  <path d="M135.26 88.252c8.323-2.97 32.1-10.254 68.479.72" fill="none" stroke="#f1f2f2" stroke-width="4.16667"/>
  <path d="M135.184 120.94c5.333-3.008 20.402-6.307 46.425-6.45" fill="none" stroke="#f1f2f2" stroke-width="4.16666"/>
  <path d="M17.105 153.64l65.46-5.474M17.103 153.64l24.03 18.202M41.135 171.841l59.584 2.875M100.718 174.718l-18.15-26.556M17.104 153.64c3.425-15.345 24.494-41.802 73.057-69.365M90.443 84.66l47.031 23.61" fill="none" stroke="#f1f2f2" stroke-width="4.16667"/>
  <path d="M135.88 142.785l1.592-34.514" fill="none" stroke="#f1f2f2" stroke-width="4.16666"/>
  <path d="M81.945 147.648c4.982-7.297 19.938-27.164 55.82-39.67M101.091 174.134c2.546-5.562 12.8-17.091 33.77-32.503M24.785 269.998l49.743-42.908M24.785 270l30.14.6M54.924 270.598l49.894-32.7M104.821 237.898l-30.294-10.814" fill="none" stroke="#f1f2f2" stroke-width="4.16667"/>
  <path d="M24.786 269.999c-6.25-14.428-4.756-48.22 18.329-99.06" fill="none" stroke="#f1f2f2" stroke-width="4.16666"/>
  <path d="M43.572 171.089l51.926-8.546M114.497 191.399l-19-28.857M73.72 227.033c-.26-8.827.167-33.695 21.846-64.901M104.78 237.214c-1.212-5.997.308-21.356 8.218-46.149M99.393 359.615l15.02-63.948" fill="none" stroke="#f1f2f2" stroke-width="4.16667"/>
  <path d="M99.392 359.615l24.74-17.226" fill="none" stroke="#f1f2f2" stroke-width="4.16666"/>
  <path d="M124.126 342.388l21.147-55.78M145.274 286.61l-30.86 9.058" fill="none" stroke="#f1f2f2" stroke-width="4.16667"/>
  <path d="M99.391 359.616c-13.535-7.995-32.185-36.213-43.395-90.91" fill="none" stroke="#f1f2f2" stroke-width="4.16666"/>
  <path d="M56.454 268.555l36.985-37.43M125.771 243.3l-32.33-12.182M113.731 296.1c-5.402-6.996-19.67-27.36-20.48-65.353" fill="none" stroke="#f1f2f2" stroke-width="4.16667"/>
  <path d="M144.84 286.078c-4.508-4.143-12.304-17.458-20.48-42.169M212.43 388.268l-25.437-60.562" fill="none" stroke="#f1f2f2" stroke-width="4.16666"/>
  <path d="M212.429 388.268l9.882-28.476M222.312 359.793l-15.68-57.557M206.635 302.236l-19.645 25.466M212.432 388.27c-15.657 1.484-47.328-10.382-88.547-48.045M124.164 339.835l7.92-52.021" fill="none" stroke="#f1f2f2" stroke-width="4.16667"/>
  <path d="M165.4 278.66l-33.316 9.15" fill="none" stroke="#f1f2f2" stroke-width="4.16666"/>
  <path d="M186.693 328.457c-8.48-2.49-31.998-10.573-54.977-40.835" fill="none" stroke="#f1f2f2" stroke-width="4.16667"/>
  <path d="M205.97 302.06c-6.081-.704-20.217-6.89-41.352-22.075M320.716 345.002l-56.176-34.045" fill="none" stroke="#f1f2f2" stroke-width="4.16666"/>
  <path d="M320.715 345.005l-8.742-28.847M311.978 316.16l-46.519-37.351" fill="none" stroke="#f1f2f2" stroke-width="4.16667"/>
  <path d="M265.46 278.808l-.926 32.153" fill="none" stroke="#f1f2f2" stroke-width="4.16666"/>
  <path d="M320.717 345.005c-11.786 10.402-44.387 19.42-99.876 13.18M220.84 357.706l-24.173-46.75" fill="none" stroke="#f1f2f2" stroke-width="4.16667"/>
  <path d="M218.24 283.973l-21.573 26.986" fill="none" stroke="#f1f2f2" stroke-width="4.16666"/>
  <path d="M264.742 311.746c-8.324 2.971-32.102 10.254-68.48-.72" fill="none" stroke="#f1f2f2" stroke-width="4.16667"/>
  <path d="M264.819 279.058c-5.333 3.008-20.405 6.31-46.434 6.45" fill="none" stroke="#f1f2f2" stroke-width="4.16666"/>
  <path d="M382.894 246.356l-65.46 5.474M382.897 246.356l-24.031-18.201M358.867 228.153l-59.585-2.87M299.282 225.283l18.149 26.547M382.895 246.356c-3.422 15.35-24.493 41.803-73.052 69.365M309.559 315.334l-47.03-23.611" fill="none" stroke="#f1f2f2" stroke-width="4.16667"/>
  <path d="M264.115 257.211l-1.592 34.514" fill="none" stroke="#f1f2f2" stroke-width="4.16666"/>
  <path d="M318.056 252.352c-4.984 7.293-19.942 27.165-55.82 39.669M298.91 225.86c-2.543 5.566-12.803 17.102-33.768 32.506M375.21 129.997l-49.74 42.91M375.215 129.998l-30.136-.6" fill="none" stroke="#f1f2f2" stroke-width="4.16667"/>
  <path d="M345.077 129.398l-49.899 32.699" fill="none" stroke="#f1f2f2" stroke-width="4.16666"/>
  <path d="M295.179 162.094l30.299 10.813M375.213 130c6.254 14.428 4.756 48.22-18.329 99.055M356.432 228.914l-51.932 8.542M285.504 208.6l18.999 28.857M326.285 172.962c.253 8.834-.174 33.692-21.847 64.905M295.221 162.784c1.213 6.001-.31 21.355-8.216 46.15" fill="none" stroke="#f1f2f2" stroke-width="4.16667"/>
  <path d="M300.608 40.379l-15.017 63.952M300.607 40.378l-24.738 17.23M275.872 57.61l-21.144 55.78" fill="none" stroke="#f1f2f2" stroke-width="4.16666"/>
  <path d="M254.727 113.39l30.86-9.058M300.607 40.378c13.537 8 32.189 36.213 43.398 90.92M343.546 131.443l-36.985 37.431M274.229 156.697l32.33 12.183M286.272 103.897c5.396 6.994 19.67 27.358 20.475 65.35" fill="none" stroke="#f1f2f2" stroke-width="4.16667"/>
  <path d="M255.16 113.92c4.505 4.144 12.305 17.458 20.48 42.169M187.571 11.732l25.436 60.563M187.57 11.73l-9.883 28.475" fill="none" stroke="#f1f2f2" stroke-width="4.16666"/>
  <path d="M177.687 40.208l15.679 57.557M193.366 97.768l19.644-25.476M187.572 11.729c15.653-1.486 47.324 10.379 88.544 48.04M275.835 60.16l-7.916 52.027" fill="none" stroke="#f1f2f2" stroke-width="4.16667"/>
  <path d="M234.6 121.339l33.317-9.15" fill="none" stroke="#f1f2f2" stroke-width="4.16666"/>
  <path d="M213.306 71.542c8.48 2.489 31.998 10.573 54.977 40.835" fill="none" stroke="#f1f2f2" stroke-width="4.16667"/>
  <path d="M194.03 97.938c6.08.704 20.216 6.89 41.355 22.075" fill="none" stroke="#f1f2f2" stroke-width="4.16666"/>
  <ellipse cx="22.189" cy="-.001" rx="22.188" ry="22.189" fill="none" stroke="#f1f2f2" transform="matrix(0 4.16667 4.16667 0 200.002 107.545)"/>
</svg>
