<svg width="90" height="93" viewBox="0 0 90 93" xmlns="http://www.w3.org/2000/svg">
  <g fill="none" fill-rule="evenodd">
    <path d="M15.577 11.091l13.614 8.25M15.577 11.091l2.118 6.99M17.695 18.081l11.272 9.051M28.967 27.132l.224-7.792M15.577 11.09c2.857-2.52 10.756-4.705 24.203-3.192M39.779 8.013l5.857 11.328M40.409 25.88l5.228-6.54M29.142 19.15c2.017-.72 7.777-2.483 16.594.175M29.122 27.071c1.292-.728 4.945-1.528 11.251-1.562M.509 34.996l15.863-1.328M.509 34.996l5.823 4.41M6.332 39.406l14.439.697M20.771 40.103l-4.398-6.435M.51 34.996c.83-3.719 5.935-10.13 17.702-16.81M18.281 18.28l11.397 5.722M29.292 32.365l.386-8.363M16.221 33.544c1.208-1.768 4.833-6.582 13.527-9.613M20.861 39.963c.617-1.35 3.102-4.143 8.184-7.877M2.37 63.192l12.055-10.398M2.37 63.192l7.304.146M9.674 63.338l12.091-7.923M21.765 55.415l-7.34-2.62M2.37 63.192C.856 59.695 1.218 51.507 6.813 39.187M6.923 39.223l12.583-2.07M24.11 44.146l-4.604-6.993M14.229 52.782c-.063-2.14.04-8.166 5.293-15.728M21.755 55.248c-.293-1.454.075-5.175 1.991-11.184M20.45 84.91l3.64-15.498M20.45 84.91l5.994-4.175M26.444 80.734l5.125-13.517M31.568 67.217l-7.479 2.195M20.45 84.91c-3.28-1.938-7.8-8.776-10.516-22.031M10.044 62.842l8.963-9.071M26.842 56.722l-7.835-2.951M23.924 69.518c-1.308-1.695-4.767-6.63-4.962-15.836M31.463 67.088c-1.092-1.004-2.981-4.23-4.963-10.218M47.841 91.852l-6.165-14.677M47.841 91.852l2.396-6.9M50.237 84.952l-3.799-13.948M46.437 71.003l-4.761 6.172M47.841 91.852c-3.793.36-11.468-2.515-21.457-11.642M26.452 80.116l1.919-12.607M36.445 65.291l-8.073 2.217M41.604 77.358c-2.055-.603-7.753-2.562-13.322-9.895M46.276 70.961c-1.473-.17-4.9-1.67-10.021-5.35M74.082 81.369l-13.613-8.25M74.082 81.369l-2.118-6.991M71.964 74.378l-11.271-9.051M60.692 65.327l-.224 7.791M74.082 81.369c-2.856 2.52-10.756 4.706-24.202 3.193M49.88 84.446l-5.857-11.328M49.25 66.579l-5.228 6.539M60.517 73.308c-2.017.721-7.778 2.485-16.594-.174M60.537 65.388c-1.293.729-4.945 1.528-11.251 1.562M89.149 57.463L73.286 58.79M89.149 57.463l-5.822-4.411M83.327 53.053l-14.439-.697M68.888 52.356l4.398 6.435M89.15 57.463c-.83 3.72-5.937 10.13-17.704 16.81M71.378 74.179l-11.396-5.721M60.367 60.094l-.386 8.363M73.437 58.916c-1.208 1.768-4.832 6.582-13.527 9.612M68.798 52.497c-.617 1.349-3.103 4.143-8.185 7.877M87.288 29.267L75.234 39.665M87.288 29.267l-7.303-.146M79.985 29.122l-12.091 7.923M67.894 37.045l7.34 2.62M87.288 29.267c1.515 3.496 1.152 11.684-4.441 24.005M82.736 53.236l-12.584 2.07M65.549 48.313l4.604 6.993M75.43 39.677c.063 2.141-.04 8.166-5.293 15.728M67.903 37.211c.294 1.454-.074 5.175-1.99 11.183M69.209 7.55l-3.64 15.497M69.209 7.55l-5.994 4.175M63.215 11.725l-5.124 13.518M58.091 25.242l7.479-2.195M69.209 7.55c3.28 1.938 7.8 8.776 10.516 22.03M79.615 29.617l-8.964 9.072M62.816 35.737l7.835 2.952M65.735 22.942c1.308 1.695 4.767 6.63 4.962 15.836M58.196 25.371c1.092 1.004 2.981 4.23 4.963 10.218M41.817.607l6.165 14.677M41.817.607l-2.395 6.901M39.422 7.508l3.799 13.948M43.222 21.456l4.76-6.172M41.817.607c3.793-.36 11.47 2.516 21.457 11.643M63.207 12.343l-1.92 12.607M53.214 27.169l8.073-2.218M48.054 15.102c2.055.603 7.753 2.562 13.323 9.895M43.383 21.498c1.474.17 4.899 1.67 10.02 5.349"/>
    <path d="M22.425 46.23c0 12.365 10.04 22.404 22.404 22.404 12.365 0 22.404-10.04 22.404-22.404 0-12.366-10.039-22.404-22.404-22.404S22.425 33.864 22.425 46.23z"/>
  </g>
</svg>
